# xmcd
#
# Track frame offsets: 
#        150
#        29922
#        48805
#        72595
#        92470
#        112320
#        134327
#        153987
#        187800
#
# Disc length: 2687 seconds
#
# Revision: 1
# Processed by: cddbd v1.5.2PL0 Copyright (c) Steve Scherf et al.
# Submitted via: ExactAudioCopy v0.99pb5
#
DISCID=7b0a7d09
DTITLE=Joe Louis Walker - Pasa Tiempo
DYEAR=2002
DGENRE=
TTITLE0=Sweet Thing
TTITLE1=Direct Me
TTITLE2=Barcelona
TTITLE3=I've Got Your Love
TTITLE4=It Hurts Me Too
TTITLE5=Love Like Blood
TTITLE6=Pasa Tiempo
TTITLE7=You Get What You Give
TTITLE8=You Can't Sit Down
EXTD=
EXTT0=
EXTT1=
EXTT2=
EXTT3=
EXTT4=
EXTT5=
EXTT6=
EXTT7=
EXTT8=
PLAYORDER=
